<svg width="512" height="512" viewBox="0 0 512 512" fill="none" xmlns="http://www.w3.org/2000/svg">
<g clip-path="url(#clip0_784_658)">
<path d="M489.7 465.9H275V393.9H489.7C502.4 393.9 512.8 383.6 512.8 370.8L513 23.1C513 17 510.6 11.1 506.3 6.8C501.8 2.4 495.9 0 489.8 0H22.7C9.89998 0 -0.400024 10.3 -0.400024 23.1V370.8C-0.400024 383.5 9.89998 393.9 22.7 393.9H236.6V465.9H22.7C9.99998 465.9 -0.400024 476.2 -0.400024 489C-0.400024 501.8 9.99998 512 22.7 512H489.7C502.4 512 512.8 501.7 512.8 488.9C512.8 476.1 502.5 465.9 489.7 465.9ZM459.4 378.5H426.6C422.8 378.5 419.7 375.1 419.7 370.8C419.7 366.6 422.8 363.1 426.6 363.1H459.4C463.2 363.1 466.3 366.5 466.3 370.8C466.3 375 463.2 378.5 459.4 378.5ZM45.7 347.7V46.1H466.7L466.6 347.7H45.7ZM262.6 379.8C257.6 384.3 249.9 384 245.4 379C240.9 374 241.2 366.3 246.2 361.8C251.2 357.3 258.9 357.6 263.4 362.6C267.9 367.5 267.6 375.2 262.6 379.8Z" fill="white"/>
</g>
<defs>
<clipPath id="clip0_784_658">
<rect width="512" height="512" fill="white"/>
</clipPath>
</defs>
</svg>
