<svg width="528" height="528" viewBox="0 0 528 528" fill="none" xmlns="http://www.w3.org/2000/svg">
<path d="M264 88C243.578 88 223.993 96.1125 209.553 110.553C195.112 124.993 187 144.578 187 165C187 185.422 195.112 205.007 209.553 219.447C223.993 233.888 243.578 242 264 242C284.422 242 304.007 233.888 318.447 219.447C332.888 205.007 341 185.422 341 165C341 144.578 332.888 124.993 318.447 110.553C304.007 96.1125 284.422 88 264 88ZM143 165C143 132.909 155.748 102.132 178.44 79.4401C201.132 56.7482 231.909 44 264 44C296.091 44 326.868 56.7482 349.56 79.4401C372.252 102.132 385 132.909 385 165C385 197.091 372.252 227.868 349.56 250.56C326.868 273.252 296.091 286 264 286C231.909 286 201.132 273.252 178.44 250.56C155.748 227.868 143 197.091 143 165ZM66 418C66 388.826 77.5893 360.847 98.2183 340.218C118.847 319.589 146.826 308 176 308H352C381.174 308 409.153 319.589 429.782 340.218C450.411 360.847 462 388.826 462 418V484H66V418ZM176 352C158.496 352 141.708 358.954 129.331 371.331C116.954 383.708 110 400.496 110 418V440H233.486L204.138 352H176ZM250.514 352L264 392.436L277.486 352H250.514ZM323.862 352L294.514 440H418V418C418 400.496 411.046 383.708 398.669 371.331C386.292 358.954 369.504 352 352 352H323.862Z" fill="white"/>
</svg>
